<svg 
    xmlns="http://www.w3.org/2000/svg" viewBox="0 0 200 200" width="100%" height="100%">
    <defs>
        <radialGradient id="bg" cx="50%" cy="40%" r="72%">
            <stop offset="0%" stop-color="#2F2F2F"/>
            <stop offset="100%" stop-color="#171717"/>
        </radialGradient>
        <radialGradient id="garlicSkin" cx="38%" cy="32%" r="72%">
            <stop offset="0%" stop-color="#FFF9F0"/>
            <stop offset="52%" stop-color="#F0E1CF"/>
            <stop offset="100%" stop-color="#BDAE9C"/>
        </radialGradient>
        <linearGradient id="garlicRidges" x1="0" y1="0" x2="0" y2="1">
            <stop offset="0%" stop-color="#FFFFFF" stop-opacity="0.42"/>
            <stop offset="100%" stop-color="#8B7D70" stop-opacity="0.1"/>
        </linearGradient>
    </defs>
    <rect width="200" height="200" rx="16" fill="url(#bg)"/>
    <ellipse cx="96" cy="171" rx="48" ry="12" fill="#000" opacity="0.35"/>
    <path d="M 84 34 C 58 46 44 72 44 104 C 44 142 66 167 96 171 C 132 176 155 152 157 114 C 159 76 138 48 110 35 C 102 54 93 59 84 34 Z" fill="url(#garlicSkin)"/>
    <path d="M 86 40 C 68 52 60 73 60 102 C 60 133 76 152 98 156 C 124 160 141 144 144 117 C 146 90 136 65 116 50 C 104 56 96 56 86 40 Z" fill="#FFFFFF" opacity="0.24"/>
    <g stroke="url(#garlicRidges)" stroke-width="1.3" fill="none" opacity="0.75">
        <path d="M 95 38 C 72 56 60 82 57 107 C 55 130 68 150 92 165"/>
        <path d="M 103 38 C 82 56 72 82 69 108 C 66 131 76 150 97 166"/>
        <path d="M 111 40 C 131 58 141 82 143 108 C 145 131 136 149 115 164"/>
        <path d="M 87 44 C 78 66 76 93 78 120 C 80 141 86 155 96 167"/>
        <path d="M 115 44 C 124 66 126 92 124 120 C 122 141 116 155 106 166"/>
    </g>
    <path d="M 96 33 C 93 22 90 14 84 8 C 96 10 104 14 111 22 C 108 29 103 35 96 33 Z" fill="#7E624F"/>
    <path d="M 132 96 C 138 118 142 138 138 152 C 147 149 155 141 158 130 C 156 109 149 95 132 96 Z" fill="#FFFFFF" opacity="0.84"/>
    <path d="M 134 103 C 145 111 150 123 151 136 C 144 142 136 146 128 147 C 126 129 128 114 134 103 Z" fill="#EFE5D9"/>
    <path d="M 140 92 C 142 80 148 72 158 68 C 164 76 166 84 164 94 C 156 94 148 94 140 92 Z" fill="#B79E8F"/>
</svg>