<svg width="1200" height="900" viewBox="0 0 1200 900" fill="none" 
    xmlns="http://www.w3.org/2000/svg">
    <rect width="1200" height="900" rx="48" fill="#1B1B1B"/>
    <defs>
        <radialGradient id="bg" cx="50%" cy="38%" r="74%">
            <stop offset="0%" stop-color="#2F2F2F"/>
            <stop offset="100%" stop-color="#141414"/>
        </radialGradient>
        <linearGradient id="chiliSkin" x1="0" y1="0" x2="1" y2="1">
            <stop offset="0%" stop-color="#8BE05C"/>
            <stop offset="48%" stop-color="#3FB51F"/>
            <stop offset="100%" stop-color="#1F6E0E"/>
        </linearGradient>
        <linearGradient id="chiliHighlight" x1="0" y1="0" x2="0" y2="1">
            <stop offset="0%" stop-color="#FFFFFF" stop-opacity="0.65"/>
            <stop offset="100%" stop-color="#FFFFFF" stop-opacity="0"/>
        </linearGradient>
    </defs>
    <rect width="1200" height="900" rx="48" fill="url(#bg)"/>
    <ellipse cx="616" cy="706" rx="216" ry="42" fill="#000" opacity="0.38"/>
    <g transform="translate(236 188)">
        <path d="M164 452C236 380 308 302 384 238C466 170 554 116 648 84" stroke="#1D6F10" stroke-width="22" stroke-linecap="round" opacity="0.35"/>
        <path d="M174 438C246 366 322 286 398 220C478 150 566 98 652 68" stroke="url(#chiliSkin)" stroke-width="18" stroke-linecap="round"/>
        <path d="M194 452C266 384 344 304 424 236C506 166 592 116 676 88" stroke="url(#chiliHighlight)" stroke-width="6" stroke-linecap="round" opacity="0.8"/>
        <path d="M258 466C330 392 404 318 488 250C562 190 640 144 710 118" stroke="#1F6E0E" stroke-width="20" stroke-linecap="round" opacity="0.28"/>
        <path d="M270 452C344 378 422 302 504 236C584 170 658 126 724 104" stroke="url(#chiliSkin)" stroke-width="16" stroke-linecap="round"/>
        <path d="M286 468C362 396 442 320 526 254C606 192 678 148 744 126" stroke="url(#chiliHighlight)" stroke-width="5" stroke-linecap="round" opacity="0.72"/>
        <path d="M640 84C646 60 662 42 680 32" stroke="#2A7D12" stroke-width="10" stroke-linecap="round"/>
        <path d="M706 114C714 88 730 70 750 60" stroke="#2A7D12" stroke-width="10" stroke-linecap="round"/>
    </g>
</svg>